<svg width="50" height="50" viewBox="0 0 50 50" fill="none" xmlns="http://www.w3.org/2000/svg">
<g clip-path="url(#clip0_34_275)">
<path d="M22.7272 19.318V21.5907H20.4545V24.9998H22.7272V35.227H27.2727V24.9998H30.2954L30.6817 21.5907H27.2727V19.6021C27.2727 18.6816 27.3636 18.193 28.784 18.193H30.6817V14.7725H27.6363C24 14.7726 22.7272 16.477 22.7272 19.318Z" fill="#132577"/>
<path d="M25 0.5C38.531 0.5 49.5 11.469 49.5 25C49.5 38.531 38.531 49.5 25 49.5C11.469 49.5 0.5 38.531 0.5 25C0.5 11.469 11.469 0.5 25 0.5ZM25 1.77246C12.1719 1.77246 1.77246 12.1719 1.77246 25C1.77246 37.8281 12.1719 48.2275 25 48.2275C37.8281 48.2275 48.2275 37.8281 48.2275 25C48.2275 12.1719 37.8281 1.77246 25 1.77246Z" fill="#132577" stroke="black"/>
</g>
<defs>
<clipPath id="clip0_34_275">
<rect width="50" height="50" fill="white"/>
</clipPath>
</defs>
</svg>
